# xmcd
#
# Track frame offsets: 
#        150
#        25160
#        46664
#        65792
#        85851
#        103572
#        121745
#        139673
#        157672
#        175572
#        193686
#        212885
#        226483
#        245334
#        263723
#
# Disc length: 3809 seconds
#
# Revision: 0
# Processed by: cddbd v1.5.1PL0 Copyright (c) Steve Scherf et al.
# Submitted via: ExactAudioCopy v0.95a5
#
DISCID=bd0edf0f
DTITLE=9th Wonder - Unreleased Beats Vol 2 (Presented by DJ Exclusive)
DYEAR=1900
DGENRE=Hip-Hop Instrumentals
TTITLE0=Unreleased/Untitled 9th Wonder Beat
TTITLE1=Unreleased/Untitled 9th Wonder Beat
TTITLE2=Unreleased/Untitled 9th Wonder Beat
TTITLE3=Unreleased/Untitled 9th Wonder Beat
TTITLE4=Unreleased/Untitled 9th Wonder Beat
TTITLE5=Unreleased/Untitled 9th Wonder Beat
TTITLE6=Unreleased/Untitled 9th Wonder Beat
TTITLE7=Unreleased/Untitled 9th Wonder Beat
TTITLE8=Unreleased/Untitled 9th Wonder Beat
TTITLE9=Unreleased/Untitled 9th Wonder Beat
TTITLE10=Unreleased/Untitled 9th Wonder Beat
TTITLE11=Unreleased/Untitled 9th Wonder Beat
TTITLE12=Unreleased/Untitled 9th Wonder Beat
TTITLE13=Unreleased/Untitled 9th Wonder Beat
TTITLE14=Unreleased/Untitled 9th Wonder Beat
EXTD=
EXTT0=
EXTT1=
EXTT2=
EXTT3=
EXTT4=
EXTT5=
EXTT6=
EXTT7=
EXTT8=
EXTT9=
EXTT10=
EXTT11=
EXTT12=
EXTT13=
EXTT14=
PLAYORDER=
